<svg width="750" height="450" viewBox="0 0 750 450" fill="none" xmlns="http://www.w3.org/2000/svg">
  <!-- WDM Large Letters -->
  <!-- W -->
  <path d="M0 50 L45 320 L90 150 L135 320 L180 50 L135 50 L112.5 200 L90 100 L67.5 200 L45 50 Z" fill="#3A3A3A"/>

  <!-- D with globe -->
  <g>
    <!-- D Letter Background -->
    <path d="M205 50 L205 320 L340 320 C 410 320 450 260 450 185 C 450 110 410 50 340 50 Z M250 100 L340 100 C 375 100 400 135 400 185 C 400 235 375 270 340 270 L250 270 Z" fill="#2B7FC6"/>

    <!-- Globe Icon inside D -->
    <circle cx="325" cy="185" r="50" fill="none" stroke="#FFFFFF" stroke-width="6"/>
    <!-- Globe vertical line -->
    <line x1="325" y1="135" x2="325" y2="235" stroke="#FFFFFF" stroke-width="6"/>
    <!-- Globe horizontal line -->
    <line x1="275" y1="185" x2="375" y2="185" stroke="#FFFFFF" stroke-width="6"/>
    <!-- Globe ellipse vertical -->
    <ellipse cx="325" cy="185" rx="25" ry="50" fill="none" stroke="#FFFFFF" stroke-width="6"/>
    <!-- Globe ellipse horizontal -->
    <ellipse cx="325" cy="185" rx="50" ry="25" fill="none" stroke="#FFFFFF" stroke-width="6"/>
  </g>

  <!-- M with growth arrow -->
  <g>
    <!-- M Letter -->
    <path d="M498 320 L498 50 L543 50 L598 180 L653 50 L698 50 L698 320 L653 320 L653 130 L608 240 L588 240 L543 130 L543 320 Z" fill="#3A3A3A"/>

    <!-- Growth Arrow -->
    <g>
      <!-- Arrow line path -->
      <polyline points="710,25 720,15 730,20 735,12 745,20" stroke="#2B7FC6" stroke-width="4" fill="none" stroke-linecap="round" stroke-linejoin="round"/>
      <!-- Arrow head -->
      <path d="M735 8 L745 20 L735 17 Z" fill="#2B7FC6"/>
    </g>
  </g>

  <!-- WeDigMa Text Below -->
  <!-- We -->
  <text x="135" y="410" font-family="Arial, sans-serif" font-size="80" font-weight="700" fill="#3A3A3A">We</text>

  <!-- Dig -->
  <text x="300" y="410" font-family="Arial, sans-serif" font-size="80" font-weight="700" fill="#2B7FC6">Dig</text>

  <!-- Ma -->
  <text x="460" y="410" font-family="Arial, sans-serif" font-size="80" font-weight="700" fill="#3A3A3A">Ma</text>
</svg>
